<?xml version="1.0" encoding="utf-8"?>
<svg viewBox="0 0 31 33" style="enable-background:new 0 0 227 134;" xmlns="http://www.w3.org/2000/svg">
  <defs>
    <style type="text/css">
	.st0{fill:#303A56;}
	.st1{opacity:0.65;fill:#181D2B;enable-background:new    ;}
	.st2{fill:#1D2334;}
	.st3{fill:#F59D15;}
	.st4{fill:none;}
</style>
  </defs>
  <path class="st1" d="M 25.501 7.451 C 24.501 7.851 23.301 7.351 22.901 6.351 C 22.501 5.351 23.001 4.151 24.001 3.751 C 25.001 3.351 26.201 3.851 26.601 4.851 C 26.601 4.851 26.601 4.851 26.601 4.851 C 27.001 5.951 26.501 7.051 25.501 7.451 Z" transform="matrix(0.9999999999999999, 0, 0, 0.9999999999999999, 0, 0)"/>
  <path class="st0" d="M 28.401 4.251 C 27.801 2.751 26.401 1.751 24.701 1.751 C 24.201 1.751 23.701 1.851 23.301 2.051 C 21.301 2.851 20.301 5.051 21.001 7.151 C 21.001 7.151 21.001 7.151 21.001 7.151 C 21.101 7.451 21.301 7.851 21.501 8.051 L 16.801 12.651 C 15.600999999999999 11.551 14.001 10.951 12.401 10.951 C 11.600999999999999 10.951 10.801 11.051 10.001 11.350999999999999 C 9.101 11.651 8.301 12.251 7.601 12.951 L 5.301 10.951 C 5.301 10.851 5.401 10.851 5.401 10.751 C 5.601 10.251 5.601 9.751 5.401 9.251 C 5.101 8.551 4.401 8.051 3.601 8.051 C 3.301 8.051 3.001 8.151 2.801 8.251 C 1.8010000000000002 8.751 1.501 10.051 2.001 10.951 C 2.501 11.751 3.501 12.151 4.401 11.851 C 4.501 11.751 4.601 11.751 4.701 11.651 L 7.101 13.651 C 6.801 14.051 6.601 14.350999999999999 6.401 14.751 C 4.901 18.051 6.401 21.951 9.801 23.451 C 10.600999999999999 23.851 11.501 24.051 12.401 24.051 C 12.801 24.051 13.201 24.051 13.701 23.951 L 14.600999999999999 27.051 C 13.401 27.651 13.001 29.151 13.600999999999999 30.251 C 14.001 31.051 14.801 31.551 15.701 31.551 C 15.901 31.551 16.201 31.551 16.401 31.451 C 17.701 31.051 18.301 29.751 17.901 28.451 C 17.601 27.451 16.701 26.751 15.600999999999999 26.751 L 15.501 26.751 L 14.600999999999999 23.651 L 14.701 23.651 C 18.101 22.351 19.801 18.551 18.501 15.151 C 18.201 14.451 17.901 13.851 17.401 13.350999999999999 L 22.201 8.651 C 23.901 10.051 26.401 9.751 27.701 8.051 C 28.701 7.051 28.901 5.551 28.401 4.251 Z" transform="matrix(0.9999999999999999, 0, 0, 0.9999999999999999, 0, 0)"/>
  <path class="st0" d="M 28.401 5.151 Z" transform="matrix(0.9999999999999999, 0, 0, 0.9999999999999999, 0, 0)"/>
  <path class="st0" d="M 24.801 8.551 C 23.601 8.551 22.501 7.751 22.101 6.651 C 21.501 5.151 22.301 3.451 23.801 2.851 C 25.301 2.251 27.001 3.051 27.601 4.551 C 28.201 6.051 27.401 7.751 25.901 8.350999999999999 C 25.501 8.451 25.101 8.551 24.801 8.551 Z" transform="matrix(0.9999999999999999, 0, 0, 0.9999999999999999, 0, 0)"/>
  <path class="st0" d="M 14.401 22.751 C 11.501 23.851 8.301 22.451 7.201 19.551 C 7.201 19.551 7.201 19.551 7.201 19.551 C 6.101 16.651 7.501 13.451 10.401 12.350999999999999 C 10.401 12.350999999999999 10.401 12.350999999999999 10.401 12.350999999999999 C 11.001 12.151 11.701 11.951 12.401 11.951 C 15.501 11.951 18.001 14.451 18.001 17.551 C 18.001 19.851 16.601 21.851 14.401 22.751 Z" transform="matrix(0.9999999999999999, 0, 0, 0.9999999999999999, 0, 0)"/>
  <path class="st0" d="M 4.101 11.251 C 3.401 11.451 2.701 11.151 2.501 10.451 C 2.301 9.851 2.601 9.251 3.101 8.951 C 3.701 8.651 4.501 8.951 4.801 9.551 C 4.901 9.851 4.901 10.251 4.801 10.551 C 4.601 10.851 4.401 11.051 4.101 11.251 Z" transform="matrix(0.9999999999999999, 0, 0, 0.9999999999999999, 0, 0)"/>
  <path class="st0" d="M 14.501 28.051 Z" transform="matrix(0.9999999999999999, 0, 0, 0.9999999999999999, 0, 0)"/>
  <path class="st0" d="M 16.101 30.551 C 16.001 30.551 15.801 30.651 15.701 30.651 C 14.901 30.651 14.301 30.051 14.301 29.251 C 14.301 28.651 14.701 28.051 15.301 27.951 C 15.401 27.951 15.600999999999999 27.851 15.701 27.851 C 16.301 27.851 16.801 28.251 17.001 28.851 C 17.201 29.551 16.801 30.351 16.101 30.551 Z" transform="matrix(0.9999999999999999, 0, 0, 0.9999999999999999, 0, 0)"/>
  <path class="st3" d="M 13.901 21.451 C 11.801 22.251 9.401 21.251 8.501 19.051 C 7.701 16.951 8.701 14.551 10.901 13.651 C 13.101 12.751 15.401 13.851 16.301 16.051 C 16.301 16.051 16.301 16.051 16.301 16.051 C 17.101 18.251 16.001 20.651 13.901 21.451 Z" transform="matrix(0.9999999999999999, 0, 0, 0.9999999999999999, 0, 0)"/>
  <path class="st1" d="M 16.001 30.051 C 15.501 30.251 15.001 29.951 14.801 29.551 C 14.701 29.051 14.901 28.551 15.401 28.451 C 15.801 28.351 16.301 28.551 16.501 28.951 C 16.701 29.351 16.501 29.851 16.001 30.051 C 16.001 30.051 16.001 30.051 16.001 30.051 Z" transform="matrix(0.9999999999999999, 0, 0, 0.9999999999999999, 0, 0)"/>
  <path class="st1" d="M 3.801 10.751 C 3.501 10.851 3.101 10.751 2.901 10.351 C 2.701 9.951 2.901 9.651 3.301 9.451 C 3.601 9.351 4.001 9.451 4.201 9.851 C 4.201 9.851 4.201 9.851 4.201 9.851 C 4.301 10.151 4.201 10.551 3.801 10.751 Z" transform="matrix(0.9999999999999999, 0, 0, 0.9999999999999999, 0, 0)"/>
</svg>