<?xml version="1.0" encoding="utf-8"?>
<svg viewBox="0 0 69 54.7" xmlns="http://www.w3.org/2000/svg">
  <defs>
    <clipPath id="clip-path">
      <rect id="SVGID" class="cls-1" x="72.87" y="30.91" width="55.17" height="21.07"/>
    </clipPath>
    <clipPath id="clip-path-5">
      <rect id="SVGID-5" data-name="SVGID" class="cls-1" x="72.51" y="2.64" width="79.48" height="28.57"/>
    </clipPath>
    <style>.cls-1{fill:none;}.cls-2{fill:#7251a1;}.cls-3{fill:#7a2880;}.cls-4{fill:#e35785;}.cls-5{fill:#701448;}.cls-6{clip-path:url(#clip-path);}.cls-7{isolation:isolate;}.cls-8{fill:#333;}.cls-9{clip-path:url(#clip-path-5);}.cls-10{fill:#6f2282;}</style>
  </defs>
  <g id="Layer_2" data-name="Layer 2">
    <g id="Layer_1-2" data-name="Layer 1">
      <path class="cls-2" d="M34,2.22A57.34,57.34,0,0,0,20.65,34.58c0,17.28,12,18,13.39,18h0c3.18,0,13.44-1.26,13.44-18A57.15,57.15,0,0,0,34,2.16"/>
      <path class="cls-3" d="M42.86,16.15a43.22,43.22,0,0,0-13.93,9c-12,12-6,21-3.54,23.65A13.06,13.06,0,0,0,34,52.4c3.18,0,13.44-1.26,13.44-18a44.31,44.31,0,0,0-4.62-18.49"/>
      <path class="cls-3" d="M42.26,49.28c1.74-1.74,9.84-11.22-3.12-24a42.42,42.42,0,0,0-13.87-9,43.36,43.36,0,0,0-4.62,18.31c0,17.28,12,18,13.39,18h0a12.89,12.89,0,0,0,6.6-1.8C41.48,50,42,49.46,42.26,49.28Z"/>
      <path class="cls-4" d="M63.15,11.23h0a67.07,67.07,0,0,0-17.41,3.84,47.12,47.12,0,0,1,4.8,19.57,23.93,23.93,0,0,1-4,14.76c1.14-.9,2.4-2,3.66-3.18C62.55,33.8,64,13,64.05,12.13a.84.84,0,0,0-.78-.9h-.06"/>
      <path class="cls-5" d="M34.64,52.58h.66a13.5,13.5,0,0,0,5.34-1.74c.84-.6,1.38-1.14,1.62-1.32,1.74-1.74,9.84-11.22-3.12-24A34.6,34.6,0,0,0,34,21.25a37.85,37.85,0,0,0-5.11,4.26c-12,12-6,21-3.54,23.65a13.22,13.22,0,0,0,7.75,3.42h1.8"/>
      <path class="cls-4" d="M17.65,34.58A46.18,46.18,0,0,1,22.51,15,67.07,67.07,0,0,0,5.1,11.17h0a.9.9,0,0,0-.9.9h0c0,.9,1.56,21.67,13.93,34.09a30.66,30.66,0,0,0,3.9,3.3,23,23,0,0,1-4.38-14.88"/>
      <g class="cls-6">
        <g class="cls-6">
          <g class="cls-6">
            <g class="cls-6">
              <g class="cls-7">
                <path class="cls-8" d="M74.23,47.66V33.71h4.86v1H75.38v5.41h3.2V41.2h-3.2v5.43h3.71v1Z"/>
                <path class="cls-8" d="M85.07,47.66V40.15c0-1.09-.6-1.62-1.37-1.62s-1.39.53-1.39,1.62v7.51h-1.1v-10h1.08v.8a2.09,2.09,0,0,1,.57-.61A2,2,0,0,1,84,37.53a2.08,2.08,0,0,1,1.56.68,2.61,2.61,0,0,1,.61,2v7.48Z"/>
                <path class="cls-8" d="M92.16,47.66v-.8a1.89,1.89,0,0,1-1.69,1,2,2,0,0,1-1.55-.71c-.6-.68-.74-1.94-.74-4.42s.14-3.73.74-4.45a1.87,1.87,0,0,1,1.55-.71,2.07,2.07,0,0,1,1.14.31,2.78,2.78,0,0,1,.53.59V33.71h1.09V47.66Zm0-7.41a1.86,1.86,0,0,0-.45-1.37,1.4,1.4,0,0,0-1-.37,1.29,1.29,0,0,0-1,.45c-.44.51-.51,1.47-.51,3.73s.07,3.19.51,3.72a1.27,1.27,0,0,0,1,.43,1.4,1.4,0,0,0,1-.37,1.86,1.86,0,0,0,.45-1.37Z"/>
                <path class="cls-8" d="M100,47.11a1.88,1.88,0,0,1-1.55.71,1.94,1.94,0,0,1-1.14-.31,2.24,2.24,0,0,1-.55-.59v4.72H95.66v-14h1.07v.8a1.86,1.86,0,0,1,.57-.61,2,2,0,0,1,1.14-.35,2,2,0,0,1,1.55.71c.6.7.74,2,.74,4.45S100.59,46.41,100,47.11ZM99.12,39a1.26,1.26,0,0,0-1-.45,1.35,1.35,0,0,0-.94.37,1.79,1.79,0,0,0-.47,1.37V45.1a1.79,1.79,0,0,0,.47,1.37,1.35,1.35,0,0,0,.94.37,1.24,1.24,0,0,0,1-.43c.45-.53.51-1.47.51-3.72S99.57,39.47,99.12,39Z"/>
                <path class="cls-8" d="M106.91,47a2.56,2.56,0,0,1-3.68,0c-.61-.73-.75-2-.75-4.35s.14-3.63.75-4.36a2.52,2.52,0,0,1,3.68,0c.61.73.75,2,.75,4.36S107.52,46.31,106.91,47ZM106.05,39a1.27,1.27,0,0,0-1-.45,1.33,1.33,0,0,0-1,.45c-.45.55-.49,1.59-.49,3.73s0,3.15.49,3.7a1.33,1.33,0,0,0,1,.45,1.27,1.27,0,0,0,1-.45c.45-.55.51-1.57.51-3.7S106.5,39.51,106.05,39Z"/>
                <path class="cls-8" d="M109.57,35.39V34H111v1.41Zm.16,12.27v-10h1.09v10Z"/>
                <path class="cls-8" d="M117.13,47.66V40.15c0-1.09-.61-1.62-1.37-1.62s-1.4.53-1.4,1.62v7.51h-1.09v-10h1.07v.8a2.23,2.23,0,0,1,.57-.61,2,2,0,0,1,1.14-.35,2.09,2.09,0,0,1,1.57.68,2.65,2.65,0,0,1,.61,2v7.48Z"/>
                <path class="cls-8" d="M121.62,47a2.68,2.68,0,0,1-.74-2V38.55h-1.22v-.86h1.22V34.77H122v2.92h1.7v.86H122V45c0,1.19.62,1.68,1.78,1.68v1A2.93,2.93,0,0,1,121.62,47Z"/>
              </g>
            </g>
          </g>
        </g>
      </g>
      <g class="cls-9">
        <g class="cls-9">
          <g class="cls-9">
            <g class="cls-9">
              <g class="cls-7">
                <path class="cls-10" d="M80.67,25.33V16.76H76.49v8.57H74.21V6.48h2.28v8.24h4.18V6.48h2.27V25.33Z"/>
                <path class="cls-10" d="M91.12,25.33V24.11a3.37,3.37,0,0,1-.79.93,2.45,2.45,0,0,1-1.62.5,2.87,2.87,0,0,1-2.35-1,4.66,4.66,0,0,1-.88-3.07,4.12,4.12,0,0,1,1.22-3.1,4,4,0,0,1,2.91-.92H91V15.25c0-1.27-.56-2-1.62-2a1.41,1.41,0,0,0-1.06.45,2.1,2.1,0,0,0-.5,1.59H85.7a4,4,0,0,1,1-2.92,3.84,3.84,0,0,1,2.65-1,3.72,3.72,0,0,1,2.68.95,4.11,4.11,0,0,1,1.08,3v9.95ZM91,19H89.8a2,2,0,0,0-1.54.5,2.76,2.76,0,0,0-.63,1.88c0,1.43.55,2.31,1.67,2.31S91,22.79,91,21.52Z"/>
                <path class="cls-10" d="M100.71,13.47A2.36,2.36,0,0,0,98.22,16v9.34H96.07V11.62h2.07v1.45a3.38,3.38,0,0,1,1-1,3.73,3.73,0,0,1,2.25-.69v2.06Z"/>
                <path class="cls-10" d="M114.05,25.33V15.25c0-1.25-.71-1.88-1.61-1.88s-1.62.63-1.62,1.88V25.33h-2.14V15.25A1.66,1.66,0,0,0,107,13.37c-.9,0-1.61.63-1.61,1.88V25.33h-2.14V11.62h2.06v1.06a2.87,2.87,0,0,1,.85-.85,2.79,2.79,0,0,1,1.48-.42,3.2,3.2,0,0,1,2.62,1.43,4.3,4.3,0,0,1,1.08-1,3.32,3.32,0,0,1,1.57-.42,2.93,2.93,0,0,1,2.46,1,3.79,3.79,0,0,1,.79,2.84V25.33Z"/>
                <path class="cls-10" d="M125.51,24.27a3.35,3.35,0,0,1-2.91,1.27,3.32,3.32,0,0,1-2.89-1.27c-.84-1.08-1-3-1-5.8s.16-4.7,1-5.79a3.32,3.32,0,0,1,2.89-1.27,3.35,3.35,0,0,1,2.91,1.27c.85,1.09,1,3,1,5.79S126.36,23.19,125.51,24.27Zm-1.69-10.35a1.49,1.49,0,0,0-1.22-.58,1.42,1.42,0,0,0-1.19.58c-.5.69-.56,2.09-.56,4.55s.06,3.87.56,4.56a1.42,1.42,0,0,0,1.19.58,1.49,1.49,0,0,0,1.22-.58c.5-.69.53-2.09.53-4.56S124.32,14.61,123.82,13.92Z"/>
                <path class="cls-10" d="M134.49,25.33V15.25a1.66,1.66,0,0,0-1.65-1.88c-.9,0-1.61.63-1.61,1.88V25.33h-2.14V11.62h2.06v1.06a3,3,0,0,1,.85-.85,2.79,2.79,0,0,1,1.48-.42,2.88,2.88,0,0,1,2.33,1,3.82,3.82,0,0,1,.82,2.84V25.33Z"/>
                <path class="cls-10" d="M143.14,27.53c-.58,2.46-2.28,2.94-4.55,2.94V28.56c1.32,0,2.14-.34,2.46-1.59l.42-1.67-3.33-13.68h2.35l2.09,10.29,2.07-10.29H147Z"/>
              </g>
            </g>
          </g>
        </g>
      </g>
      <rect class="cls-1" width="155.83" height="54.69"/>
    </g>
  </g>
</svg>