<?xml version="1.0" encoding="utf-8"?>
<svg viewBox="0 0 115 115" fill="none" xmlns="http://www.w3.org/2000/svg">
  <g transform="matrix(1, 0, 0, 1.000886, -18.98634, -8.957527)">
    <path d="M 35.145 73.87 C 35.145 74.005 35.217 74.13 35.334 74.197 L 41.812 77.927 C 41.929 77.995 42.072 77.995 42.189 77.927 L 48.677 74.181 C 48.794 74.114 48.866 73.99 48.866 73.855 L 48.874 66.38 C 48.874 66.245 48.802 66.12 48.685 66.053 L 42.207 62.322 C 42.091 62.255 41.947 62.255 41.83 62.323 L 35.342 66.068 C 35.226 66.136 35.154 66.26 35.154 66.395 L 35.145 73.87 Z" stroke="#307FE2" stroke-width="4.95"/>
    <path d="M 44.46 116.093 C 44.46 116.228 44.532 116.353 44.649 116.421 L 49.732 119.347 C 49.848 119.415 49.992 119.415 50.109 119.347 L 55.2 116.408 C 55.316 116.341 55.388 116.216 55.388 116.082 L 55.395 110.216 C 55.395 110.081 55.323 109.956 55.206 109.889 L 50.123 106.962 C 50.007 106.895 49.863 106.895 49.746 106.962 L 44.655 109.901 C 44.538 109.969 44.467 110.093 44.466 110.228 L 44.46 116.093 Z" stroke="#E4002B" stroke-width="4.95"/>
    <path d="M 59.839 76.638 C 59.839 76.773 59.911 76.898 60.028 76.965 L 70.852 83.197 C 70.968 83.265 71.112 83.265 71.229 83.197 L 82.068 76.939 C 82.185 76.872 82.257 76.748 82.257 76.613 L 82.271 64.123 C 82.271 63.988 82.199 63.863 82.082 63.796 L 71.258 57.563 C 71.142 57.496 70.998 57.496 70.881 57.563 L 60.042 63.821 C 59.925 63.889 59.853 64.013 59.853 64.148 L 59.839 76.638 Z" stroke="#307FE2" stroke-width="4.95"/>
    <path d="M 91.748 50.132 L 71.14 38.265 C 71.023 38.198 70.879 38.198 70.763 38.265 L 43.019 54.283 C 42.902 54.351 42.83 54.475 42.83 54.61 L 42.822 61.61 M 99.016 72.827 L 98.998 86.517 C 98.997 86.651 98.926 86.776 98.809 86.843 L 71.065 102.861 C 70.949 102.928 70.805 102.928 70.688 102.861 L 42.983 86.908 C 42.866 86.84 42.793 86.715 42.794 86.58 L 42.804 77.68" stroke="#307FE2" stroke-width="4.95" stroke-linecap="round"/>
    <path d="M 59.529 19.121 C 69.721 17.247 80.242 18.562 89.658 22.888 C 99.075 27.215 106.926 34.341 112.142 43.295 C 117.359 52.249 119.685 62.594 118.804 72.919 C 117.923 83.243 113.878 93.045 107.22 100.986 L 103.835 98.147 C 109.908 90.903 113.598 81.962 114.402 72.543 C 115.205 63.124 113.083 53.687 108.325 45.519 C 103.566 37.351 96.404 30.85 87.814 26.903 C 79.224 22.957 69.626 21.756 60.329 23.467 L 59.529 19.121 Z" fill="#307FE2"/>
    <path d="M 35.757 33.479 C 34.924 32.588 34.968 31.186 35.895 30.393 C 37.981 28.606 40.21 26.994 42.56 25.571 C 43.603 24.939 44.949 25.336 45.534 26.407 C 46.12 27.477 45.724 28.815 44.683 29.451 C 42.655 30.69 40.727 32.085 38.915 33.623 C 37.985 34.413 36.591 34.37 35.757 33.479 Z" fill="#307FE2"/>
    <path d="M 94.982 108.929 C 95.65 109.95 95.366 111.324 94.316 111.946 C 90.134 114.426 85.614 116.287 80.897 117.471 C 79.714 117.768 78.545 116.993 78.3 115.798 C 78.055 114.602 78.827 113.44 80.009 113.138 C 84.181 112.072 88.183 110.425 91.896 108.244 C 92.948 107.626 94.315 107.908 94.982 108.929 Z" fill="#2E78D5"/>
    <path d="M 45.247 26.916 C 45.247 27.051 45.319 27.175 45.436 27.243 L 52.968 31.58 C 53.085 31.647 53.228 31.647 53.345 31.58 L 60.888 27.225 C 61.005 27.157 61.077 27.033 61.077 26.898 L 61.087 18.207 C 61.087 18.072 61.015 17.947 60.898 17.88 L 53.366 13.542 C 53.249 13.475 53.106 13.475 52.989 13.543 L 45.446 17.898 C 45.329 17.965 45.257 18.09 45.257 18.224 L 45.247 26.916 Z" stroke="#E4002B" stroke-width="4.95"/>
    <path d="M 94.06 110.13 C 94.06 110.266 94.132 110.39 94.249 110.458 L 102.166 115.017 C 102.282 115.084 102.426 115.084 102.543 115.016 L 110.471 110.439 C 110.588 110.371 110.66 110.247 110.66 110.112 L 110.67 100.977 C 110.671 100.842 110.598 100.717 110.481 100.65 L 102.565 96.091 C 102.448 96.024 102.304 96.024 102.188 96.091 L 94.259 100.669 C 94.142 100.736 94.071 100.86 94.07 100.995 L 94.06 110.13 Z" stroke="#E4002B" stroke-width="4.95"/>
  </g>
</svg>