<?xml version="1.0" encoding="utf-8"?>
<svg viewBox="0 0 70 70" xmlns="http://www.w3.org/2000/svg">
  <defs>
    <clipPath id="clip0_106_1688">
      <rect width="90" height="24" fill="white"/>
    </clipPath>
  </defs>
  <g clip-path="url(#clip0_106_1688)" transform="matrix(2.573364019393921, 0, 0, 2.573364019393921, 4.876630783081055, 4.365005970001221)" style="">
    <path opacity="0.2" fill-rule="evenodd" clip-rule="evenodd" d="M9.52959 14.3538C9.00998 13.8277 8.16744 13.8277 7.64782 14.3538L4.01876 18.0272C3.49912 18.5532 3.49912 19.4061 4.01876 19.932C4.53842 20.4581 5.38093 20.4581 5.90059 19.932L9.52959 16.2586C10.0493 15.7326 10.0493 14.8797 9.52959 14.3538Z" fill="#382FF1"/>
    <path opacity="0.2" fill-rule="evenodd" clip-rule="evenodd" d="M4.01877 18.0271C4.53842 17.5011 5.38093 17.5011 5.90058 18.0271L9.52959 21.7006C10.0493 22.2265 10.0493 23.0794 9.52959 23.6054C9.00998 24.1314 8.16744 24.1314 7.64782 23.6054L4.01877 19.9319C3.49911 19.4059 3.49911 18.5531 4.01877 18.0271Z" fill="#382FF1"/>
    <path fill-rule="evenodd" clip-rule="evenodd" d="M0.389737 14.3538C0.909387 13.8277 1.7519 13.8277 2.27156 14.3538L6.84151 18.9796L4.95968 20.8845L0.389737 16.2586C-0.129912 15.7326 -0.129912 14.8797 0.389737 14.3538Z" fill="#382FF1"/>
    <path fill-rule="evenodd" clip-rule="evenodd" d="M4.95968 17.0747L0.389737 21.7006C-0.129912 22.2266 -0.129912 23.0795 0.389737 23.6055C0.909389 24.1315 1.7519 24.1315 2.27155 23.6055L6.84151 18.9796L4.95968 17.0747Z" fill="#382FF1"/>
    <path d="M9.91935 15.3062C9.91935 16.05 9.32358 16.6531 8.5887 16.6531C7.85382 16.6531 7.25806 16.05 7.25806 15.3062C7.25806 14.5623 7.85382 13.9592 8.5887 13.9592C9.32358 13.9592 9.91935 14.5623 9.91935 15.3062Z" fill="#FF7459"/>
    <path d="M9.91935 22.6531C9.91935 23.397 9.32358 24 8.5887 24C7.85382 24 7.25806 23.397 7.25806 22.6531C7.25806 21.9092 7.85382 21.3062 8.5887 21.3062C9.32358 21.3062 9.91935 21.9092 9.91935 22.6531Z" fill="#FF7459"/>
    <path opacity="0.2" fill-rule="evenodd" clip-rule="evenodd" d="M3.1726e-07 8.69386L0 1.34692H2.66129V8.69386H3.1726e-07Z" fill="#382FF1"/>
    <path opacity="0.2" fill-rule="evenodd" clip-rule="evenodd" d="M7.25806 8.69386V1.34692H9.91935V8.69386H7.25806Z" fill="#382FF1"/>
    <path fill-rule="evenodd" clip-rule="evenodd" d="M0.389737 0.394509C0.909387 -0.131503 1.7519 -0.131503 2.27156 0.394509L9.5296 7.74147C10.0493 8.26745 10.0493 9.12031 9.5296 9.64629C9.00998 10.1723 8.16744 10.1723 7.64782 9.64629L0.389737 2.29937C-0.129912 1.77335 -0.129912 0.920522 0.389737 0.394509Z" fill="#382FF1"/>
    <path d="M2.66129 8.69386C2.66129 9.43774 2.06554 10.0408 1.33065 10.0408C0.59575 10.0408 0 9.43774 0 8.69386C0 7.94999 0.59575 7.34692 1.33065 7.34692C2.06554 7.34692 2.66129 7.94999 2.66129 8.69386Z" fill="#FF7459"/>
    <path d="M9.91935 1.34694C9.91935 2.09083 9.32358 2.69388 8.5887 2.69388C7.85382 2.69388 7.25806 2.09083 7.25806 1.34694C7.25806 0.603045 7.85382 0 8.5887 0C9.32358 0 9.91935 0.603045 9.91935 1.34694Z" fill="#FF7459"/>
    <path opacity="0.2" fill-rule="evenodd" clip-rule="evenodd" d="M13.7903 5.02052C13.7903 4.27663 14.386 3.67358 15.1209 3.67358H18.75C19.4848 3.67358 20.0806 4.27663 20.0806 5.02052C20.0806 5.76442 19.4848 6.36746 18.75 6.36746H15.1209C14.386 6.36746 13.7903 5.76442 13.7903 5.02052Z" fill="#382FF1"/>
    <path fill-rule="evenodd" clip-rule="evenodd" d="M13.7903 1.34694C13.7903 0.603045 14.386 0 15.1209 0H22.379C23.1139 0 23.7096 0.603045 23.7096 1.34694C23.7096 2.09083 23.1139 2.69388 22.379 2.69388H15.1209C14.386 2.69388 13.7903 2.09083 13.7903 1.34694Z" fill="#382FF1"/>
    <path fill-rule="evenodd" clip-rule="evenodd" d="M13.7903 8.69386C13.7903 7.94999 14.386 7.34692 15.1209 7.34692H22.379C23.1139 7.34692 23.7096 7.94999 23.7096 8.69386C23.7096 9.43774 23.1139 10.0408 22.379 10.0408H15.1209C14.386 10.0408 13.7903 9.43774 13.7903 8.69386Z" fill="#382FF1"/>
    <path d="M20.0806 5.02052C20.0806 5.76442 19.4848 6.36746 18.75 6.36746C18.0151 6.36746 17.4193 5.76442 17.4193 5.02052C17.4193 4.27663 18.0151 3.67358 18.75 3.67358C19.4848 3.67358 20.0806 4.27663 20.0806 5.02052Z" fill="#FF7459"/>
    <path fill-rule="evenodd" clip-rule="evenodd" d="M13.7903 15.3062C13.7903 14.5623 14.386 13.9592 15.1209 13.9592H22.379C23.1139 13.9592 23.7096 14.5623 23.7096 15.3062C23.7096 16.05 23.1139 16.6531 22.379 16.6531H15.1209C14.386 16.6531 13.7903 16.05 13.7903 15.3062Z" fill="#382FF1"/>
    <path opacity="0.2" fill-rule="evenodd" clip-rule="evenodd" d="M18.75 13.9592C19.4848 13.9592 20.0806 14.5623 20.0806 15.3062V22.6531C20.0806 23.397 19.4848 24 18.75 24C18.0151 24 17.4193 23.397 17.4193 22.6531V15.3062C17.4193 14.5623 18.0151 13.9592 18.75 13.9592Z" fill="#382FF1"/>
    <path d="M20.0806 22.6531C20.0806 23.397 19.4848 24 18.75 24C18.0151 24 17.4193 23.397 17.4193 22.6531C17.4193 21.9092 18.0151 21.3062 18.75 21.3062C19.4848 21.3062 20.0806 21.9092 20.0806 22.6531Z" fill="#FF7459"/>
  </g>
</svg>