<?xml version="1.0" encoding="utf-8"?>
<svg viewBox="0 0 110 85" xmlns="http://www.w3.org/2000/svg">
  <path d="M 18.98 48.257 C 18.98 60.534 24.794 68.048 33.652 68.048 C 42.562 68.048 48.057 60.534 48.057 48.257 C 48.057 35.098 42.562 28.363 33.652 28.363 C 24.794 28.363 18.98 35.098 18.98 48.257 Z M 60.325 48.257 C 60.325 64.108 48.534 75.194 33.543 75.194 C 18.711 75.194 6.709 64.108 6.709 48.257 C 6.709 32.403 18.711 21.317 33.543 21.317 C 48.428 21.317 60.325 32.403 60.325 48.257 Z" fill="#55A05E" style=""/>
  <path d="M 87.189 62.65 C 87.189 66.075 88.465 67.312 91.981 67.312 L 101 67.368 L 101 74.2 L 88.152 74.2 C 80.687 74.2 76.416 70.062 76.416 62.814 L 76.416 38.116 L 76.402 38.116 L 76.402 29.73 L 65.702 29.73 L 65.702 23.695 C 66.412 23.695 66.182 23.684 67.156 23.659 C 68.891 23.637 70.203 23.589 71.105 23.517 C 73.344 23.403 74.835 22.982 75.584 22.255 C 76.316 21.541 76.81 20.057 77.074 17.812 C 77.268 16.571 77.41 15.031 77.51 13.183 C 77.604 11.349 77.654 8.901 77.654 8.596 L 87.186 8.596 L 87.186 22.354 L 101 22.354 L 101 29.728 L 87.186 29.728 L 87.186 62.65 L 87.189 62.65 Z" fill="#55A05E" style=""/>
</svg>