<?xml version="1.0" encoding="utf-8"?>
<svg viewBox="0 0 80 80" xmlns="http://www.w3.org/2000/svg">
  <defs>
    <linearGradient id="paint0_linear_2704_319" x1="253.688" y1="248.119" x2="106.988" y2="102.882" gradientUnits="userSpaceOnUse" gradientTransform="matrix(0.154609, 0, 0, 0.154609, 0.916764, 1.215465)">
      <stop stop-color="#3B95C9"/>
      <stop offset="1" stop-color="#59B1E3"/>
    </linearGradient>
    <linearGradient id="paint1_linear_2704_319" x1="265.845" y1="257.596" x2="408.143" y2="407.228" gradientUnits="userSpaceOnUse" gradientTransform="matrix(0.154609, 0, 0, 0.154609, 0.916764, 1.215465)">
      <stop stop-color="#59B1E3"/>
      <stop offset="1" stop-color="#9BD0F0"/>
    </linearGradient>
    <linearGradient id="paint2_linear_2704_319" x1="461.747" y1="-16.1089" x2="170.831" y2="139.459" gradientUnits="userSpaceOnUse" gradientTransform="matrix(0.154609, 0, 0, 0.154609, 0.916764, 1.215465)">
      <stop stop-color="#59B1E3"/>
      <stop offset="1" stop-color="#9BD0F0"/>
    </linearGradient>
    <linearGradient id="paint3_linear_2704_319" x1="341.69" y1="352.714" x2="50.8182" y2="529.265" gradientUnits="userSpaceOnUse" gradientTransform="matrix(0.154609, 0, 0, 0.154609, 0.916764, 1.215465)">
      <stop stop-color="#59B1E3"/>
      <stop offset="1" stop-color="#9BD0F0"/>
    </linearGradient>
    <linearGradient id="paint4_linear_2704_319" x1="253.793" y1="405.145" x2="168.707" y2="491.701" gradientUnits="userSpaceOnUse" gradientTransform="matrix(0.154609, 0, 0, 0.154609, 0.916764, 1.215465)">
      <stop stop-color="#3B95C9"/>
      <stop offset="1" stop-color="#9BD0F0" stop-opacity="0"/>
    </linearGradient>
  </defs>
  <path d="M 28.296 3.817 L 4.262 27.851 L 28.296 51.885 L 52.33 27.851 L 28.296 3.817 Z" fill="url(#paint0_linear_2704_319)" style=""/>
  <path d="M 52.331 27.85 L 28.297 51.884 L 52.331 75.918 L 76.365 51.884 L 52.331 27.85 Z" fill="url(#paint1_linear_2704_319)" style=""/>
  <path d="M 28.296 3.817 L 52.33 27.851 L 76.364 3.817 L 28.296 3.817 Z" fill="url(#paint2_linear_2704_319)" style=""/>
  <path d="M 28.296 51.885 L 4.262 75.918 L 52.33 75.918 L 28.296 51.885 Z" fill="url(#paint3_linear_2704_319)" style=""/>
  <path d="M 28.296 51.885 L 4.262 75.918 L 52.33 75.918 L 28.296 51.885 Z" fill="url(#paint4_linear_2704_319)" style=""/>
</svg>